<svg id="Capa_1" enable-background="new 0 0 512 512" height="512" viewBox="0 0 512 512" width="512" xmlns="http://www.w3.org/2000/svg" xmlns:xlink="http://www.w3.org/1999/xlink">
    <linearGradient id="SVGID_1_" gradientUnits="userSpaceOnUse" x1="256" x2="256" y1="512" y2="0">
        <stop offset="0" stop-color="#fd5900"/><stop offset="1" stop-color="#ffde00"/>
    </linearGradient>
    <g>
        <g>
            <path d="m507.605 443.973-102.861-102.862c-5.859-5.859-15.352-5.859-21.211 0l-10.605 10.605-30.008-30.008c29.271-34.117 47.08-78.337 47.08-126.708 0-107.519-87.48-195-195-195s-195 87.481-195 195 87.48 195 195 195c48.371 0 92.591-17.809 126.709-47.08l30.008 30.008-10.605 10.605c-5.859 5.859-5.859 15.352 0 21.211l102.861 102.861c5.859 5.859 15.351 5.859 21.211 0l42.422-42.422c5.859-5.859 5.859-15.351-.001-21.21zm-312.605-83.973c-90.981 0-165-74.019-165-165s74.019-165 165-165 165 74.019 165 165-74.019 165-165 165zm259.578 115.789-81.65-81.65 21.211-21.211 81.65 81.65z" fill="#eaeaea"/>
        </g>
    </g>
</svg>